HIERARCHY
ROOT Hips
{
	OFFSET 52.911598 -5.101096 95.970703
	CHANNELS 6 Xposition Yposition Zposition Xrotation Yrotation Zrotation
	JOINT spine
	{
		OFFSET 0.000000 -0.467660 8.132492
		CHANNELS 3 Xrotation Yrotation Zrotation
		JOINT spine1
		{
			OFFSET 0.000000 -0.000001 10.349800
			CHANNELS 3 Xrotation Yrotation Zrotation
			JOINT spine2
			{
				OFFSET 0.000000 -0.000001 9.916992
				CHANNELS 3 Xrotation Yrotation Zrotation
				JOINT Neck
				{
					OFFSET 0.000000 -1.213904 25.461006
					CHANNELS 3 Xrotation Yrotation Zrotation
					JOINT Head
					{
						OFFSET 0.000000 -0.000001 7.692444
						CHANNELS 3 Xrotation Yrotation Zrotation
						End Site
						{
							OFFSET 0.000000 6.140627 18.619995
						}
					}
				}
				JOINT RightShoulder
				{
					OFFSET -4.175751 0.581443 10.709602
					CHANNELS 3 Xrotation Yrotation Zrotation
					JOINT RightArm
					{
						OFFSET 0.000000 -0.000002 14.046600
						CHANNELS 3 Xrotation Yrotation Zrotation
						JOINT RightArmRoll
						{
							OFFSET 0.000000 -0.000001 7.090973
							CHANNELS 3 Xrotation Yrotation Zrotation
							JOINT RightForeArm
							{
								OFFSET 0.000000 -0.000003 20.653503
								CHANNELS 3 Xrotation Yrotation Zrotation
								JOINT RightForeArmRoll
								{
									OFFSET 0.000000 -0.000001 7.957184
									CHANNELS 3 Xrotation Yrotation Zrotation
									JOINT RightHand
									{
										OFFSET 0.000000 -0.000003 15.968292
										CHANNELS 3 Xrotation Yrotation Zrotation
										End Site
										{
											OFFSET 0.000000 0.000000 0.100006
										}
									}
								}
							}
						}
					}
				}
				JOINT LeftShoulder
				{
					OFFSET 4.175751 0.581443 10.709602
					CHANNELS 3 Xrotation Yrotation Zrotation
					JOINT LeftArm
					{
						OFFSET 0.000000 -0.000002 14.046600
						CHANNELS 3 Xrotation Yrotation Zrotation
						JOINT LeftArmRoll
						{
							OFFSET 0.000000 -0.000001 7.090973
							CHANNELS 3 Xrotation Yrotation Zrotation
							JOINT LeftForeArm
							{
								OFFSET 0.000000 -0.000003 20.653503
								CHANNELS 3 Xrotation Yrotation Zrotation
								JOINT LeftForeArmRoll
								{
									OFFSET 0.000000 -0.000001 7.957184
									CHANNELS 3 Xrotation Yrotation Zrotation
									JOINT LeftHand
									{
										OFFSET 0.000000 -0.000003 15.968292
										CHANNELS 3 Xrotation Yrotation Zrotation
										End Site
										{
											OFFSET 0.000000 0.000000 0.100006
										}
									}
								}
							}
						}
					}
				}
			}
		}
	}
	JOINT RightUpLeg
	{
		OFFSET -7.208340 1.108840 -1.321823
		CHANNELS 3 Xrotation Yrotation Zrotation
		JOINT RightUpLegRoll
		{
			OFFSET 0.000000 -0.000003 18.723801
			CHANNELS 3 Xrotation Yrotation Zrotation
			JOINT RightLeg
			{
				OFFSET 0.000000 0.000004 -23.186600
				CHANNELS 3 Xrotation Yrotation Zrotation
				JOINT RightLegRoll
				{
					OFFSET 0.000000 -0.000004 23.262398
					CHANNELS 3 Xrotation Yrotation Zrotation
					JOINT RightFoot
					{
						OFFSET 0.000000 -0.000003 19.362099
						CHANNELS 3 Xrotation Yrotation Zrotation
						JOINT RightToeBase
						{
							OFFSET 0.000000 -0.000003 16.185699
							CHANNELS 3 Xrotation Yrotation Zrotation
							End Site
							{
								OFFSET 0.006859 0.903521 7.838623
							}
						}
					}
				}
			}
		}
	}
	JOINT LeftUpLeg
	{
		OFFSET 7.208340 1.108840 -1.321823
		CHANNELS 3 Xrotation Yrotation Zrotation
		JOINT LeftUpLegRoll
		{
			OFFSET 0.000000 -0.000003 18.723900
			CHANNELS 3 Xrotation Yrotation Zrotation
			JOINT LeftLeg
			{
				OFFSET 0.000000 -0.000004 23.186501
				CHANNELS 3 Xrotation Yrotation Zrotation
				JOINT LeftLegRoll
				{
					OFFSET 0.000000 -0.000004 23.477493
					CHANNELS 3 Xrotation Yrotation Zrotation
					JOINT LeftFoot
					{
						OFFSET 0.000000 -0.000003 19.147003
						CHANNELS 3 Xrotation Yrotation Zrotation
						JOINT LeftToeBase
						{
							OFFSET 0.000000 -0.000003 16.185699
							CHANNELS 3 Xrotation Yrotation Zrotation
							End Site
							{
								OFFSET -0.030746 0.903520 7.838623
							}
						}
					}
				}
			}
		}
	}
}
MOTION
Frames: 11
Frame Time: 0.041667
53.086403 -6.848449 95.641205 -4.225353 0.627669 -0.404243 -0.568955 -0.359217 0.115064 2.844253 -0.718359 0.243287 4.489380 -0.715355 0.251742 17.045512 1.741412 -4.957947 0.691571 -1.594633 -4.834485 -17.689884 -54.767165 -20.876000 -37.434699 -121.999459 -19.154014 -0.000003 0.000000 -0.000002 3.068442 -9.351971 -0.429861 0.000006 0.000006 -3.000002 -5.000239 -7.998841 0.000152 -14.795768 57.905347 17.451531 -35.682206 118.769408 26.140020 -0.000003 0.000003 0.000007 0.976273 9.335468 0.677549 -0.000002 -0.000005 3.012279 -5.000222 7.998853 -0.000136 -2.289356 -173.331268 3.792870 -179.999991 0.000006 -0.854001 166.658856 -2.256479 -0.882973 -0.000001 0.000003 -0.051177 70.319229 5.459042 5.913001 25.456894 -7.354577 0.000001 -0.033192 173.288005 -1.730010 -0.000019 -0.000005 -0.817447 -14.563965 1.144088 0.904912 -0.000000 -0.000002 -0.082537 74.081844 -5.413386 -6.138813 25.456926 7.351882 0.000000 
53.084602 -6.855078 95.645103 -4.215223 0.629287 -0.404574 -0.568049 -0.359262 0.115065 2.847613 -0.718528 0.242430 4.492741 -0.715522 0.250895 17.045857 1.746228 -4.959015 0.685135 -1.599925 -4.835080 -17.684033 -54.758180 -20.868875 -37.399063 -121.987233 -19.134702 -0.000001 -0.000000 -0.000002 3.102432 -9.365100 -0.428117 0.000007 0.000005 -3.000003 -5.000236 -7.998842 0.000153 -14.787641 57.908857 17.441955 -35.657624 118.754027 26.126321 -0.000005 0.000004 0.000006 1.010045 9.340915 0.674431 -0.000001 -0.000005 3.012281 -5.000221 7.998852 -0.000136 -2.303934 -173.333344 3.788977 -179.999991 0.000006 -0.854001 166.656957 -2.256461 -0.883049 -0.000001 0.000002 -0.051177 70.317187 5.457598 5.914051 25.456901 -7.354578 0.000002 -0.049716 173.286995 -1.726988 -0.000020 -0.000005 -0.817453 -14.568763 1.143105 0.904926 0.000001 -0.000002 -0.082274 74.081133 -5.412187 -6.141680 25.456931 7.351883 0.000000 
53.089104 -6.847806 95.643898 -4.205044 0.630975 -0.404936 -0.567241 -0.359289 0.115067 2.850835 -0.718665 0.241546 4.495960 -0.715657 0.250020 17.046103 1.751016 -4.960040 0.679017 -1.605286 -4.835617 -17.678362 -54.749574 -20.861918 -37.364874 -121.974351 -19.116721 -0.000001 -0.000000 -0.000001 3.135910 -9.378025 -0.426399 0.000005 0.000006 -3.000002 -5.000240 -7.998842 0.000152 -14.779561 57.912259 17.432436 -35.633012 118.738659 26.112402 -0.000003 0.000003 0.000008 1.043513 9.346277 0.671337 -0.000005 -0.000005 3.012280 -5.000223 7.998852 -0.000136 -2.318697 -173.335407 3.785004 -179.999991 0.000005 -0.854000 166.654758 -2.255470 -0.882905 -0.000001 0.000002 -0.051177 70.315213 5.456064 5.915180 25.456894 -7.354577 0.000003 -0.066421 173.286995 -1.723706 -0.000020 -0.000005 -0.817466 -14.573858 1.141849 0.904927 0.000001 -0.000002 -0.082015 74.080696 -5.410873 -6.144917 25.456930 7.351882 0.000000 
53.091206 -6.840147 95.643097 -4.194844 0.632712 -0.405322 -0.566493 -0.359304 0.115069 2.853975 -0.718778 0.240642 4.499091 -0.715771 0.249125 17.046347 1.755795 -4.961043 0.673142 -1.610708 -4.836118 -17.672819 -54.741248 -20.855090 -37.329999 -121.962399 -19.097629 -0.000002 0.000000 -0.000003 3.169055 -9.390816 -0.424697 0.000008 0.000006 -3.000000 -5.000238 -7.998840 0.000152 -14.771561 57.915742 17.423007 -35.607333 118.724097 26.097144 -0.000003 0.000004 0.000007 1.076773 9.351599 0.668255 -0.000002 -0.000005 3.012282 -5.000222 7.998852 -0.000135 -2.333576 -173.337483 3.780979 -179.999991 0.000006 -0.854001 166.652477 -2.254478 -0.882764 -0.000001 0.000003 -0.051177 70.313341 5.454503 5.916300 25.456895 -7.354575 0.000001 -0.083245 173.286011 -1.720237 -0.000020 -0.000005 -0.817484 -14.579151 1.140409 0.904918 0.000000 -0.000002 -0.081758 74.080355 -5.409554 -6.148148 25.456928 7.351882 0.000000 
53.090702 -6.837899 95.641602 -4.184617 0.634475 -0.405720 -0.565783 -0.359310 0.115072 2.857045 -0.718881 0.239726 4.502171 -0.715871 0.248220 17.046591 1.760564 -4.962022 0.667397 -1.616160 -4.836597 -17.667200 -54.733147 -20.848213 -37.296371 -121.949763 -19.079821 -0.000002 0.000001 -0.000001 3.201993 -9.403530 -0.422995 0.000010 0.000006 -3.000000 -5.000239 -7.998841 0.000151 -14.763527 57.919123 17.413543 -35.582687 118.708729 26.082990 -0.000002 0.000003 0.000007 1.109910 9.356897 0.665184 -0.000002 -0.000005 3.012280 -5.000222 7.998852 -0.000136 -2.348539 -173.339560 3.776923 -179.999991 0.000005 -0.854001 166.649963 -2.254454 -0.883860 -0.000001 0.000003 -0.051177 70.311559 5.452882 5.917506 25.456897 -7.354576 0.000002 -0.100141 173.285014 -1.716660 -0.000019 -0.000005 -0.817507 -14.584643 1.138851 0.904905 0.000000 -0.000002 -0.081503 74.080122 -5.408175 -6.151564 25.456928 7.351882 -0.000001 
53.093403 -6.822428 95.643692 -4.174388 0.636246 -0.406123 -0.565084 -0.359315 0.115074 2.860115 -0.718980 0.238808 4.505242 -0.715969 0.247311 17.046837 1.765332 -4.962993 0.661685 -1.621621 -4.837084 -17.661618 -54.725129 -20.841392 -37.262729 -121.937141 -19.061899 -0.000001 0.000000 -0.000001 3.234881 -9.416212 -0.421281 0.000011 0.000007 -2.999996 -5.000239 -7.998842 0.000150 -14.755556 57.922606 17.404160 -35.558030 118.693361 26.068802 -0.000002 0.000003 0.000007 1.143017 9.362180 0.662105 -0.000004 -0.000005 3.012280 -5.000220 7.998852 -0.000136 -2.363510 -173.341609 3.772859 -179.999991 0.000005 -0.854000 166.647477 -2.253461 -0.883728 -0.000001 0.000003 -0.051177 70.309680 5.451291 5.918721 25.456899 -7.354576 0.000001 -0.117054 173.285014 -1.713063 -0.000019 -0.000005 -0.817530 -14.590035 1.137265 0.904885 0.000001 -0.000002 -0.081248 74.079877 -5.406820 -6.154889 25.456928 7.351882 -0.000000 
53.094105 -6.820434 95.645302 -4.164169 0.638002 -0.406520 -0.564363 -0.359325 0.115076 2.863205 -0.719085 0.237895 4.508333 -0.716073 0.246408 17.047078 1.770101 -4.963983 0.655903 -1.627063 -4.837566 -17.655962 -54.716929 -20.834481 -37.228906 -121.924477 -19.043915 -0.000001 0.000001 -0.000001 3.267881 -9.428949 -0.419548 0.000008 0.000005 -3.000002 -5.000239 -7.998841 0.000152 -14.747524 57.925994 17.394685 -35.533335 118.677993 26.054609 -0.000002 0.000003 0.000008 1.176186 9.367472 0.659016 -0.000003 -0.000005 3.012280 -5.000219 7.998852 -0.000136 -2.378450 -173.343685 3.768819 -179.999991 0.000006 -0.854001 166.645086 -2.252469 -0.883591 -0.000001 0.000003 -0.051177 70.307898 5.449667 5.920027 25.456899 -7.354575 0.000000 -0.133933 173.284030 -1.709517 -0.000020 -0.000004 -0.817551 -14.595428 1.135736 0.904871 0.000001 -0.000001 -0.080992 74.079535 -5.405471 -6.158215 25.456928 7.351882 -0.000000 
53.087105 -6.820685 95.643204 -4.153980 0.639724 -0.406901 -0.563600 -0.359343 0.115078 2.866366 -0.719207 0.236996 4.511493 -0.716193 0.245520 17.047326 1.774889 -4.964987 0.649964 -1.632474 -4.838083 -17.650384 -54.708500 -20.827617 -37.193942 -121.912552 -19.024828 -0.000001 0.000000 -0.000001 3.301129 -9.441780 -0.417775 0.000006 0.000006 -2.999999 -5.000240 -7.998841 0.000154 -14.739516 57.929491 17.385249 -35.508620 118.662639 26.040494 -0.000002 0.000003 0.000007 1.209509 9.372808 0.655908 0.000001 -0.000005 3.012280 -5.000222 7.998852 -0.000137 -2.393301 -173.345762 3.764810 -179.999991 0.000006 -0.854001 166.642778 -2.252447 -0.883682 -0.000001 0.000002 -0.051177 70.306026 5.448102 5.921146 25.456899 -7.354574 0.000001 -0.150722 173.283033 -1.706101 -0.000019 -0.000005 -0.817568 -14.600723 1.134345 0.904864 0.000000 -0.000001 -0.080734 74.079200 -5.404152 -6.161447 25.456926 7.351882 -0.000000 
53.088406 -6.814307 95.649002 -4.143819 0.641390 -0.407257 -0.562759 -0.359376 0.115080 2.869626 -0.719354 0.236121 4.514753 -0.716339 0.244653 17.047671 1.779686 -4.966029 0.643754 -1.637816 -4.838651 -17.644686 -54.699792 -20.820636 -37.158463 -121.900476 -19.005411 -0.000000 0.000000 -0.000002 3.334783 -9.454774 -0.415957 0.000008 0.000005 -3.000000 -5.000240 -7.998842 0.000152 -14.731395 57.932886 17.375677 -35.483891 118.647284 26.026473 -0.000002 0.000003 0.000005 1.243078 9.378190 0.652766 -0.000000 -0.000005 3.012282 -5.000222 7.998853 -0.000135 -2.407998 -173.347824 3.760881 -179.999991 0.000005 -0.854000 166.640701 -2.251444 -0.883531 -0.000001 0.000003 -0.051177 70.303970 5.446631 5.922190 25.456895 -7.354576 0.000001 -0.167371 173.282022 -1.702890 -0.000019 -0.000005 -0.817578 -14.605719 1.133177 0.904868 0.000001 -0.000002 -0.080475 74.078674 -5.402864 -6.164591 25.456931 7.351882 0.000001 
53.085304 -6.809575 95.647202 -4.133700 0.642979 -0.407580 -0.561815 -0.359429 0.115080 2.873036 -0.719535 0.235276 4.518165 -0.716519 0.243818 17.047917 1.784503 -4.967104 0.637180 -1.643078 -4.839270 -17.638940 -54.690592 -20.813593 -37.122327 -121.888195 -18.985733 -0.000003 -0.000000 -0.000003 3.368998 -9.467996 -0.414075 0.000007 0.000005 -3.000001 -5.000243 -7.998841 0.000153 -14.723234 57.936390 17.366063 -35.459132 118.631930 26.012630 -0.000002 0.000004 0.000007 1.276979 9.383652 0.649589 -0.000002 -0.000005 3.012280 -5.000221 7.998852 -0.000134 -2.422508 -173.349901 3.757025 -179.999991 0.000006 -0.854001 166.638803 -2.251427 -0.883606 -0.000001 0.000003 -0.051177 70.301826 5.445209 5.923250 25.456897 -7.354575 0.000001 -0.183826 173.281039 -1.699973 -0.000019 -0.000005 -0.817579 -14.610514 1.132301 0.904888 0.000002 -0.000002 -0.080211 74.077957 -5.401672 -6.167357 25.456931 7.351882 0.000000 
53.087006 -6.804286 95.644402 -4.123660 0.644470 -0.407858 -0.560739 -0.359507 0.115080 2.876627 -0.719761 0.234469 4.521754 -0.716745 0.243022 17.048166 1.789357 -4.968250 0.630145 -1.648230 -4.839955 -17.633071 -54.680695 -20.806375 -37.085526 -121.875724 -18.965883 -0.000001 0.000001 -0.000001 3.403914 -9.481509 -0.412116 0.000007 0.000006 -3.000000 -5.000238 -7.998843 0.000152 -14.714975 57.939894 17.356332 -35.434178 118.616535 25.998852 -0.000004 0.000004 0.000008 1.311311 9.389214 0.646360 -0.000003 -0.000005 3.012280 -5.000221 7.998852 -0.000134 -2.436757 -173.350966 3.753256 -179.999991 0.000005 -0.854001 166.637396 -2.250443 -0.883430 -0.000001 0.000003 -0.051176 70.299497 5.443879 5.924131 25.456894 -7.354576 0.000002 -0.200029 173.280041 -1.697433 -0.000020 -0.000005 -0.817569 -14.614812 1.131815 0.904927 0.000001 -0.000002 -0.079941 74.076960 -5.400570 -6.169952 25.456930 7.351882 0.000000 
